<?xml version="1.0" encoding="UTF-8" standalone="no"?>
<!-- Created with Inkscape (http://www.inkscape.org/) -->

<svg
   xmlns:dc="http://purl.org/dc/elements/1.1/"
   xmlns:cc="http://creativecommons.org/ns#"
   xmlns:rdf="http://www.w3.org/1999/02/22-rdf-syntax-ns#"
   xmlns:svg="http://www.w3.org/2000/svg"
   xmlns="http://www.w3.org/2000/svg"
   version="1.1"
   width="550"
   height="327.5"
   id="svg2"
   xml:space="preserve"><metadata
     id="metadata8"><rdf:RDF><cc:Work
         rdf:about=""><dc:format>image/svg+xml</dc:format><dc:type
           rdf:resource="http://purl.org/dc/dcmitype/StillImage" /><dc:title></dc:title></cc:Work></rdf:RDF></metadata><defs
     id="defs6" /><g
     transform="matrix(1.25,0,0,-1.25,0,327.5)"
     id="g10"><g
       transform="scale(0.1,0.1)"
       id="g12"><path
         d="m 8.86719,6.24609 4387.35001,0 0,2608.36001 -4387.35001,0 0,-2608.36001 z"
         id="path14"
         style="fill:none;fill-opacity:0;fill-rule:evenodd;stroke:none" /><path
         d="m 1552.49,2136.3 -250.5,0 0,-1155.32 -106.56,0 0,1155.32 -246.774,0 0,97.21 603.834,0 0,-97.21 z M 467.477,616.129 l 1057.293,0 0,-27.297 -1057.293,0 0,27.297 z m 2412.843,0 1057.29,0 0,-27.297 -1057.29,0 0,27.297 z m -991.14,-77.801 c 0,-23.836 -8.95,-44.328 -26.82,-61.473 -17.87,-17.148 -38.73,-25.722 -62.56,-25.722 -17.44,0 -34.73,5.805 -51.88,17.437 -18.61,12.493 -29.51,26.883 -32.7,43.164 10.17,6.102 17.87,8.864 23.11,8.286 3.78,-13.379 11.55,-24.055 23.32,-32.051 11.77,-7.996 24.77,-11.989 39.02,-11.989 17.44,0 32.33,6.102 44.69,18.309 12.35,12.207 18.53,27.035 18.53,44.473 0,25.863 -11.92,44.617 -35.75,56.242 -22.38,8.434 -44.62,17.004 -66.71,25.723 -24.12,12.793 -36.18,33.57 -36.18,62.347 0,20.34 7.7,37.641 23.11,51.883 15.4,14.234 33.57,21.356 54.49,21.356 24.12,0 44.47,-11.043 61.04,-33.129 -3.49,-3.2 -9.3,-7.411 -17.44,-12.649 -15.11,15.121 -30.81,22.672 -47.09,22.672 -13.95,0 -25.79,-4.723 -35.53,-14.172 -9.73,-9.437 -14.6,-20.996 -14.6,-34.652 0,-22.387 12.06,-38.656 36.18,-48.836 22.38,-8.715 44.91,-17.438 67.58,-26.152 24.12,-14.832 36.19,-38.512 36.19,-71.067 z m 800.68,102.016 c 0,-18.887 -6.11,-37.641 -18.31,-56.239 -13.95,-21.218 -32.56,-35.019 -55.81,-41.421 -13.65,-3.778 -36.19,-5.086 -67.57,-3.922 l 0,-79.352 -24.42,0 0,270.75 -31.39,0 12.64,21.36 c 13.08,0.289 32.85,0.683 59.29,0.441 36.34,-0.336 65.69,-9.738 88.07,-27.473 25,-19.765 37.5,-47.812 37.5,-84.144 z m -23.98,1.304 c 0,31.102 -13.23,54.653 -39.67,70.637 -22.39,13.656 -48.4,19.617 -78.04,17.875 l 0,-169.601 c 34.15,-1.161 56.74,0.586 67.79,5.23 15.04,6.402 27.32,17.301 36.92,32.707 8.64,14.234 13,28.625 13,43.152 z M 2302.49,449.816 c -44.17,0 -81.3,15.118 -111.39,45.348 -30.08,30.227 -45.12,66.703 -45.12,109.434 0,42.722 15.48,79.129 46.43,109.211 30.96,30.082 67.94,45.117 110.96,45.117 43.31,0 80.14,-15.18 110.52,-45.551 30.38,-30.383 45.56,-67.074 45.56,-110.094 0,-44.461 -15.25,-81.164 -45.78,-110.082 -30.52,-28.922 -67.58,-43.383 -111.18,-43.383 z m 0.88,285.571 c -36.04,0 -67.36,-12.864 -93.96,-38.582 -26.59,-25.719 -39.89,-56.895 -39.89,-93.524 0,-36.332 13.08,-67.207 39.24,-92.636 26.16,-25.434 57.4,-38.157 93.73,-38.157 37.21,0 68.74,12.578 94.62,37.715 25.86,25.141 38.8,56.602 38.8,94.395 0,36.621 -12.94,67.578 -38.8,92.855 -25.88,25.289 -57.12,37.934 -93.74,37.934 z m -196.86,-276.41 -23.11,0 0,179.183 -102.02,0 0,-178.75 -22.67,-0.433 0,179.183 -33.57,0 12.65,20.063 20.92,0 0,93.738 22.67,0 0,-93.738 102.02,0 0,93.738 23.11,0 0,-292.984 z m 965.97,880.443 -67.86,0 0,-358.44 -84.11,0 0,1155.32 -113.47,0 47.21,97.21 243.5,0 c 109.79,0 196.31,-54.52 261.4,-133.67 65.09,-79.14 93.47,-154.54 97.06,-289.12 4.7,-176.19 -63.75,-368.7 -220.17,-443.76 -45.82,-21.98 -103.25,-27.52 -163.56,-27.54 z m -2.01,796.88 -65.85,0 0,-695.73 c 51.83,-1.25 84.38,-0.32 97.13,0 51.8,1.33 97.25,12.77 138.78,44.98 93.11,72.27 133.63,205.07 133.63,316.76 0,87.63 -27.41,163.8 -72.91,223.49 -49.97,65.56 -122.87,110.5 -230.78,110.5 z m -461.54,-1159.062 -100.95,0 0,1254.402 100.95,0 0,-1254.402 z m -568.97,372.512 241.77,-368.77 -104.43,0 -238.44,358.44 -65.38,0 0,-358.44 -81.05,0 0,1155.32 -109.34,0 45.5,97.21 234.63,0 c 105.78,0 189.14,-54.52 251.87,-133.67 62.71,-79.14 90.07,-154.53 93.53,-289.12 2.24,-87.18 -11.46,-172.72 -53.01,-256.11 -57,-114.43 -108.67,-161.88 -215.65,-204.86 z m -103.03,786.55 -63.45,0 0,-695.73 c 49.94,-1.25 81.3,-0.32 93.6,0 49.9,1.33 93.7,12.77 133.71,44.98 89.71,72.27 128.77,205.07 128.77,316.76 0,87.63 -26.42,163.8 -70.26,223.49 -48.15,65.56 -118.4,110.5 -222.37,110.5"
         id="path16"
         style="fill:#000000;fill-opacity:1;fill-rule:nonzero;stroke:none" /></g></g></svg>